STARTFONT 2.1
FONT -Monotype-Bookman Old Style-Bold-I-Normal--12-120-75-75-P-73-iso8859-9
SIZE 12 75 75
FONTBOUNDINGBOX 20 15 -2 -3

STARTPROPERTIES 24
FOUNDRY "Monotype"
FAMILY_NAME "Bookman Old Style"
WEIGHT_NAME "Bold"
SLANT "I"
SETWIDTH_NAME "Normal"
ADD_STYLE_NAME ""
PIXEL_SIZE 12
POINT_SIZE 120
RESOLUTION_X 75
RESOLUTION_Y 75
SPACING "P"
AVERAGE_WIDTH 73
CHARSET_REGISTRY "iso8859"
CHARSET_ENCODING "9"
FACE_NAME "Bookman Old Style Bold Italic ISO Latin5"
_DEC_DEVICE_FONTNAMES "PS=bookmanoldstyle-bit-lat5"
COPYRIGHT "Copyright (c) 1994 Monotype Typography Ltd."
CAP_HEIGHT 10
X_HEIGHT 8
WEIGHT 10
QUAD_WIDTH 9
DEFAULT_CHAR 160
FONT_DESCENT 3
FONT_ASCENT 13
ENDPROPERTIES

CHARS 191

STARTCHAR space
ENCODING 32
SWIDTH 340 0
DWIDTH 4 0
BBX 0 0 0 0
BITMAP
ENDCHAR

STARTCHAR exclam
ENCODING 33
SWIDTH 320 0
DWIDTH 4 0
BBX 4 9 1 0
BITMAP
20
70
60
60
40
40
00
C0
C0
ENDCHAR

STARTCHAR quotedbl
ENCODING 34
SWIDTH 380 0
DWIDTH 5 0
BBX 5 3 0 6
BITMAP
28
50
A0
ENDCHAR

STARTCHAR numbersign
ENCODING 35
SWIDTH 600 0
DWIDTH 8 0
BBX 6 9 1 0
BITMAP
28
28
28
FC
50
FC
50
50
50
ENDCHAR

STARTCHAR dollar
ENCODING 36
SWIDTH 680 0
DWIDTH 9 0
BBX 8 12 1 -2
BITMAP
08
3E
73
63
78
3C
0E
C6
CE
7C
10
10
ENDCHAR

STARTCHAR percent
ENCODING 37
SWIDTH 880 0
DWIDTH 11 0
BBX 10 9 1 0
BITMAP
7080
D100
9200
B400
E9C0
0B40
1240
22C0
4380
ENDCHAR

STARTCHAR ampersand
ENCODING 38
SWIDTH 980 0
DWIDTH 13 0
BBX 12 9 1 0
BITMAP
1E00
3300
3600
3C60
6EC0
C680
C330
E7B0
7DE0
ENDCHAR

STARTCHAR quoteright
ENCODING 39
SWIDTH 320 0
DWIDTH 4 0
BBX 3 4 1 5
BITMAP
60
60
40
80
ENDCHAR

STARTCHAR parenleft
ENCODING 40
SWIDTH 260 0
DWIDTH 3 0
BBX 5 12 0 -3
BITMAP
18
30
30
60
60
60
C0
C0
C0
C0
C0
40
ENDCHAR

STARTCHAR parenright
ENCODING 41
SWIDTH 260 0
DWIDTH 3 0
BBX 5 12 0 -3
BITMAP
10
18
18
18
18
18
30
30
30
60
60
C0
ENDCHAR

STARTCHAR asterisk
ENCODING 42
SWIDTH 460 0
DWIDTH 6 0
BBX 4 5 1 4
BITMAP
90
60
F0
60
90
ENDCHAR

STARTCHAR plus
ENCODING 43
SWIDTH 600 0
DWIDTH 8 0
BBX 7 7 1 1
BITMAP
10
10
10
FE
10
10
10
ENDCHAR

STARTCHAR comma
ENCODING 44
SWIDTH 340 0
DWIDTH 4 0
BBX 3 4 1 -2
BITMAP
60
60
40
80
ENDCHAR

STARTCHAR minus
ENCODING 45
SWIDTH 600 0
DWIDTH 8 0
BBX 6 1 2 4
BITMAP
FC
ENDCHAR

STARTCHAR period
ENCODING 46
SWIDTH 340 0
DWIDTH 4 0
BBX 2 2 1 0
BITMAP
C0
C0
ENDCHAR

STARTCHAR slash
ENCODING 47
SWIDTH 360 0
DWIDTH 5 0
BBX 7 12 0 -3
BITMAP
06
04
0C
08
18
10
30
20
60
40
C0
80
ENDCHAR

STARTCHAR zero
ENCODING 48
SWIDTH 680 0
DWIDTH 9 0
BBX 8 9 1 0
BITMAP
1E
77
63
C3
C3
C3
C6
EE
78
ENDCHAR

STARTCHAR one
ENCODING 49
SWIDTH 680 0
DWIDTH 9 0
BBX 6 9 2 0
BITMAP
0C
3C
18
18
18
30
30
30
FC
ENDCHAR

STARTCHAR two
ENCODING 50
SWIDTH 680 0
DWIDTH 9 0
BBX 8 9 1 0
BITMAP
1E
37
63
43
06
1C
31
63
FE
ENDCHAR

STARTCHAR three
ENCODING 51
SWIDTH 680 0
DWIDTH 9 0
BBX 8 9 1 0
BITMAP
1E
37
23
03
1E
06
C6
EC
78
ENDCHAR

STARTCHAR four
ENCODING 52
SWIDTH 680 0
DWIDTH 9 0
BBX 8 9 1 0
BITMAP
07
0F
1B
36
66
C6
FF
0C
0C
ENDCHAR

STARTCHAR five
ENCODING 53
SWIDTH 680 0
DWIDTH 9 0
BBX 8 9 1 0
BITMAP
3F
7E
60
7C
6E
06
C6
EC
78
ENDCHAR

STARTCHAR six
ENCODING 54
SWIDTH 680 0
DWIDTH 9 0
BBX 7 9 1 0
BITMAP
0E
3C
70
7C
EE
C6
C6
EC
78
ENDCHAR

STARTCHAR seven
ENCODING 55
SWIDTH 680 0
DWIDTH 9 0
BBX 8 9 1 0
BITMAP
3F
7F
C6
0C
18
38
30
70
60
ENDCHAR

STARTCHAR eight
ENCODING 56
SWIDTH 680 0
DWIDTH 9 0
BBX 8 9 1 0
BITMAP
3E
63
63
7E
3E
67
C3
E7
7E
ENDCHAR

STARTCHAR nine
ENCODING 57
SWIDTH 680 0
DWIDTH 9 0
BBX 7 9 2 0
BITMAP
3C
6E
C6
C6
EE
7C
1C
78
E0
ENDCHAR

STARTCHAR colon
ENCODING 58
SWIDTH 340 0
DWIDTH 4 0
BBX 3 6 1 0
BITMAP
60
60
00
00
C0
C0
ENDCHAR

STARTCHAR semicolon
ENCODING 59
SWIDTH 340 0
DWIDTH 4 0
BBX 4 8 0 -2
BITMAP
30
30
00
00
60
60
40
80
ENDCHAR

STARTCHAR less
ENCODING 60
SWIDTH 620 0
DWIDTH 8 0
BBX 6 7 1 1
BITMAP
04
1C
70
C0
70
1C
04
ENDCHAR

STARTCHAR equal
ENCODING 61
SWIDTH 600 0
DWIDTH 8 0
BBX 6 3 1 3
BITMAP
FC
00
FC
ENDCHAR

STARTCHAR greater
ENCODING 62
SWIDTH 620 0
DWIDTH 8 0
BBX 6 7 1 1
BITMAP
80
E0
38
0C
38
E0
80
ENDCHAR

STARTCHAR question
ENCODING 63
SWIDTH 620 0
DWIDTH 8 0
BBX 7 9 1 0
BITMAP
7C
EE
C6
06
7C
78
00
C0
C0
ENDCHAR

STARTCHAR at
ENCODING 64
SWIDTH 780 0
DWIDTH 11 0
BBX 11 12 0 -3
BITMAP
1F80
2040
4020
47A0
8920
9320
B320
BEC0
5320
4040
30C0
0F00
ENDCHAR

STARTCHAR A
ENCODING 65
SWIDTH 720 0
DWIDTH 9 0
BBX 10 9 0 0
BITMAP
0700
0F00
0B00
1B00
1180
3F80
2180
6180
F3C0
ENDCHAR

STARTCHAR B
ENCODING 66
SWIDTH 720 0
DWIDTH 9 0
BBX 9 9 1 0
BITMAP
3F00
1B80
1980
3180
3F00
3180
6180
6300
FE00
ENDCHAR

STARTCHAR C
ENCODING 67
SWIDTH 700 0
DWIDTH 9 0
BBX 8 9 2 0
BITMAP
1E
73
61
E0
C0
C0
C2
E6
7C
ENDCHAR

STARTCHAR D
ENCODING 68
SWIDTH 760 0
DWIDTH 10 0
BBX 10 9 1 0
BITMAP
3F00
1980
18C0
30C0
30C0
31C0
6180
6700
FE00
ENDCHAR

STARTCHAR E
ENCODING 69
SWIDTH 720 0
DWIDTH 9 0
BBX 9 9 1 0
BITMAP
3F00
1980
1880
3200
3E00
3400
6080
6180
FF00
ENDCHAR

STARTCHAR F
ENCODING 70
SWIDTH 660 0
DWIDTH 9 0
BBX 9 9 1 0
BITMAP
3F00
1980
1880
3200
3E00
3400
6000
6000
F000
ENDCHAR

STARTCHAR G
ENCODING 71
SWIDTH 760 0
DWIDTH 10 0
BBX 9 9 2 0
BITMAP
1F00
7180
6080
E000
C780
C300
C300
E700
7E00
ENDCHAR

STARTCHAR H
ENCODING 72
SWIDTH 800 0
DWIDTH 10 0
BBX 11 9 1 0
BITMAP
3DE0
18C0
18C0
3180
3F80
3180
6300
6300
F780
ENDCHAR

STARTCHAR I
ENCODING 73
SWIDTH 380 0
DWIDTH 5 0
BBX 6 9 1 0
BITMAP
3C
18
18
30
30
30
60
60
F0
ENDCHAR

STARTCHAR J
ENCODING 74
SWIDTH 620 0
DWIDTH 8 0
BBX 9 9 1 0
BITMAP
0780
0300
0300
0600
0600
4600
CC00
EC00
7800
ENDCHAR

STARTCHAR K
ENCODING 75
SWIDTH 780 0
DWIDTH 10 0
BBX 10 9 1 0
BITMAP
3DC0
1980
1B00
3600
3C00
3600
6600
6300
F780
ENDCHAR

STARTCHAR L
ENCODING 76
SWIDTH 640 0
DWIDTH 8 0
BBX 8 9 1 0
BITMAP
3C
18
18
30
30
30
61
63
FE
ENDCHAR

STARTCHAR M
ENCODING 77
SWIDTH 860 0
DWIDTH 12 0
BBX 13 9 1 0
BITMAP
3878
18F0
19B0
3960
2B60
2E60
6CC0
4CC0
E9E0
ENDCHAR

STARTCHAR N
ENCODING 78
SWIDTH 740 0
DWIDTH 9 0
BBX 10 9 1 0
BITMAP
39C0
1880
1880
3D80
2D00
2700
6700
4600
E600
ENDCHAR

STARTCHAR O
ENCODING 79
SWIDTH 760 0
DWIDTH 10 0
BBX 9 9 2 0
BITMAP
1F00
7380
6180
E180
C180
C380
C300
E700
7C00
ENDCHAR

STARTCHAR P
ENCODING 80
SWIDTH 640 0
DWIDTH 8 0
BBX 9 9 1 0
BITMAP
3F00
1980
1980
3300
3E00
3000
6000
6000
F000
ENDCHAR

STARTCHAR Q
ENCODING 81
SWIDTH 760 0
DWIDTH 10 0
BBX 9 11 2 -2
BITMAP
1E00
7300
6180
E180
C180
C380
C300
6700
3E00
3800
1E00
ENDCHAR

STARTCHAR R
ENCODING 82
SWIDTH 740 0
DWIDTH 10 0
BBX 10 9 1 0
BITMAP
3F80
18C0
18C0
3180
3F00
3600
6600
6300
F380
ENDCHAR

STARTCHAR S
ENCODING 83
SWIDTH 700 0
DWIDTH 9 0
BBX 9 9 1 0
BITMAP
1E80
3180
6080
7800
3E00
0F00
8300
C600
BC00
ENDCHAR

STARTCHAR T
ENCODING 84
SWIDTH 700 0
DWIDTH 9 0
BBX 8 9 3 0
BITMAP
FF
DB
99
30
30
30
60
60
F0
ENDCHAR

STARTCHAR U
ENCODING 85
SWIDTH 740 0
DWIDTH 10 0
BBX 10 9 2 0
BITMAP
79C0
3080
3180
6100
6100
6300
C200
E600
7C00
ENDCHAR

STARTCHAR V
ENCODING 86
SWIDTH 660 0
DWIDTH 9 0
BBX 9 9 2 0
BITMAP
F380
6100
6300
6200
6600
3400
3C00
3800
3800
ENDCHAR

STARTCHAR W
ENCODING 87
SWIDTH 1000 0
DWIDTH 12 0
BBX 12 9 2 0
BITMAP
EF70
6620
6660
6640
6EC0
6A80
3380
3300
3300
ENDCHAR

STARTCHAR X
ENCODING 88
SWIDTH 740 0
DWIDTH 10 0
BBX 11 9 0 0
BITMAP
3DE0
18C0
0D80
0700
0E00
1B00
3300
6180
F3C0
ENDCHAR

STARTCHAR Y
ENCODING 89
SWIDTH 660 0
DWIDTH 9 0
BBX 9 9 2 0
BITMAP
F780
6300
6200
6400
3800
3000
7000
6000
F000
ENDCHAR

STARTCHAR Z
ENCODING 90
SWIDTH 680 0
DWIDTH 9 0
BBX 9 9 1 0
BITMAP
3F80
6380
4700
0E00
1C00
3800
7100
E300
FE00
ENDCHAR

STARTCHAR bracketleft
ENCODING 91
SWIDTH 260 0
DWIDTH 3 0
BBX 5 12 0 -3
BITMAP
38
30
30
30
60
60
60
60
C0
C0
C0
E0
ENDCHAR

STARTCHAR backslash
ENCODING 92
SWIDTH 580 0
DWIDTH 5 0
BBX 7 12 0 -3
BITMAP
80
C0
40
60
20
30
10
18
08
0C
04
06
ENDCHAR

STARTCHAR bracketright
ENCODING 93
SWIDTH 260 0
DWIDTH 3 0
BBX 5 12 0 -3
BITMAP
38
18
18
18
30
30
30
30
60
60
60
E0
ENDCHAR

STARTCHAR asciicircum
ENCODING 94
SWIDTH 620 0
DWIDTH 8 0
BBX 6 6 1 3
BITMAP
30
30
68
48
CC
84
ENDCHAR

STARTCHAR underscore
ENCODING 95
SWIDTH 500 0
DWIDTH 7 0
BBX 7 1 0 -2
BITMAP
FE
ENDCHAR

STARTCHAR quoteleft
ENCODING 96
SWIDTH 320 0
DWIDTH 4 0
BBX 3 4 1 5
BITMAP
20
40
C0
C0
ENDCHAR

STARTCHAR a
ENCODING 97
SWIDTH 680 0
DWIDTH 9 0
BBX 8 6 2 0
BITMAP
3D
66
C6
CC
DD
76
ENDCHAR

STARTCHAR b
ENCODING 98
SWIDTH 600 0
DWIDTH 8 0
BBX 7 9 2 0
BITMAP
10
70
30
6C
7E
66
C6
CC
B8
ENDCHAR

STARTCHAR c
ENCODING 99
SWIDTH 560 0
DWIDTH 7 0
BBX 7 6 2 0
BITMAP
3C
6E
C4
C0
C4
78
ENDCHAR

STARTCHAR d
ENCODING 100
SWIDTH 680 0
DWIDTH 9 0
BBX 9 9 2 0
BITMAP
0080
0380
0180
3B00
6700
C300
C600
EE80
7700
ENDCHAR

STARTCHAR e
ENCODING 101
SWIDTH 560 0
DWIDTH 7 0
BBX 7 6 2 0
BITMAP
3C
66
CC
F8
C4
78
ENDCHAR

STARTCHAR f
ENCODING 102
SWIDTH 420 0
DWIDTH 5 0
BBX 11 12 -2 -3
BITMAP
01C0
0360
0300
0F80
0600
0600
0C00
0C00
0C00
1800
D800
7000
ENDCHAR

STARTCHAR g
ENCODING 103
SWIDTH 620 0
DWIDTH 8 0
BBX 9 9 1 -3
BITMAP
1E80
3300
6300
6300
7600
3E00
4600
EC00
7800
ENDCHAR

STARTCHAR h
ENCODING 104
SWIDTH 700 0
DWIDTH 9 0
BBX 8 9 2 0
BITMAP
10
70
30
6C
76
66
CC
CD
CE
ENDCHAR

STARTCHAR i
ENCODING 105
SWIDTH 380 0
DWIDTH 5 0
BBX 4 9 2 0
BITMAP
30
30
00
20
E0
60
C0
D0
60
ENDCHAR

STARTCHAR j
ENCODING 106
SWIDTH 320 0
DWIDTH 4 0
BBX 8 12 -2 -3
BITMAP
03
03
00
02
0E
06
0C
0C
0C
18
D8
70
ENDCHAR

STARTCHAR k
ENCODING 107
SWIDTH 700 0
DWIDTH 9 0
BBX 8 9 2 0
BITMAP
10
70
30
6E
7B
70
D8
DD
CE
ENDCHAR

STARTCHAR l
ENCODING 108
SWIDTH 380 0
DWIDTH 5 0
BBX 4 9 2 0
BITMAP
10
70
30
60
60
60
C0
D0
60
ENDCHAR

STARTCHAR m
ENCODING 109
SWIDTH 960 0
DWIDTH 12 0
BBX 12 6 1 0
BITMAP
6EC0
F760
6660
6660
CCD0
CCE0
ENDCHAR

STARTCHAR n
ENCODING 110
SWIDTH 680 0
DWIDTH 9 0
BBX 8 6 2 0
BITMAP
6C
F6
66
66
CD
CE
ENDCHAR

STARTCHAR o
ENCODING 111
SWIDTH 600 0
DWIDTH 8 0
BBX 7 6 2 0
BITMAP
3C
66
C6
C6
CC
78
ENDCHAR

STARTCHAR p
ENCODING 112
SWIDTH 660 0
DWIDTH 9 0
BBX 9 9 1 -3
BITMAP
1700
3D80
1980
3180
3300
3E00
6000
6000
F000
ENDCHAR

STARTCHAR q
ENCODING 113
SWIDTH 620 0
DWIDTH 8 0
BBX 7 9 2 -3
BITMAP
3A
66
C6
CC
DC
6C
18
18
3C
ENDCHAR

STARTCHAR r
ENCODING 114
SWIDTH 500 0
DWIDTH 6 0
BBX 6 6 2 0
BITMAP
68
FC
60
60
C0
C0
ENDCHAR

STARTCHAR s
ENCODING 115
SWIDTH 540 0
DWIDTH 7 0
BBX 6 6 2 0
BITMAP
3C
64
78
3C
CC
78
ENDCHAR

STARTCHAR t
ENCODING 116
SWIDTH 440 0
DWIDTH 6 0
BBX 5 8 2 0
BITMAP
10
30
F8
60
60
C0
C8
70
ENDCHAR

STARTCHAR u
ENCODING 117
SWIDTH 680 0
DWIDTH 9 0
BBX 8 6 2 0
BITMAP
66
E6
66
CC
DD
6E
ENDCHAR

STARTCHAR v
ENCODING 118
SWIDTH 540 0
DWIDTH 7 0
BBX 6 6 2 0
BITMAP
68
EC
64
CC
E8
70
ENDCHAR

STARTCHAR w
ENCODING 119
SWIDTH 860 0
DWIDTH 11 0
BBX 11 6 1 0
BITMAP
6640
E660
6620
CE60
EF40
7380
ENDCHAR

STARTCHAR x
ENCODING 120
SWIDTH 620 0
DWIDTH 8 0
BBX 9 6 0 0
BITMAP
3900
1B80
0E00
1C00
D680
6700
ENDCHAR

STARTCHAR y
ENCODING 121
SWIDTH 600 0
DWIDTH 8 0
BBX 8 9 1 -3
BITMAP
33
73
33
66
6E
36
0C
CC
78
ENDCHAR

STARTCHAR z
ENCODING 122
SWIDTH 560 0
DWIDTH 7 0
BBX 7 6 1 0
BITMAP
7E
CC
18
30
66
FC
ENDCHAR

STARTCHAR braceleft
ENCODING 123
SWIDTH 300 0
DWIDTH 4 0
BBX 5 12 0 -3
BITMAP
18
30
30
30
60
C0
40
20
60
60
60
30
ENDCHAR

STARTCHAR bar
ENCODING 124
SWIDTH 620 0
DWIDTH 8 0
BBX 2 13 3 -3
BITMAP
C0
C0
C0
C0
C0
C0
C0
C0
C0
C0
C0
C0
C0
ENDCHAR

STARTCHAR braceright
ENCODING 125
SWIDTH 300 0
DWIDTH 4 0
BBX 5 12 0 -3
BITMAP
60
30
30
30
20
10
18
30
60
60
60
C0
ENDCHAR

STARTCHAR asciitilde
ENCODING 126
SWIDTH 620 0
DWIDTH 8 0
BBX 6 2 2 3
BITMAP
F4
BC
ENDCHAR

STARTCHAR space
ENCODING 160
SWIDTH 340 0
DWIDTH 5 0
BBX 0 0 0 0
BITMAP
ENDCHAR

STARTCHAR exclamdown
ENCODING 161
SWIDTH 320 0
DWIDTH 4 0
BBX 4 9 0 -3
BITMAP
30
30
00
20
60
60
60
E0
40
ENDCHAR

STARTCHAR cent
ENCODING 162
SWIDTH 680 0
DWIDTH 9 0
BBX 6 9 2 0
BITMAP
08
08
7C
E4
C0
C4
78
20
20
ENDCHAR

STARTCHAR sterling
ENCODING 163
SWIDTH 680 0
DWIDTH 9 0
BBX 9 9 0 0
BITMAP
0700
1F80
1880
1800
7E00
1800
F080
9F80
E700
ENDCHAR

STARTCHAR currency
ENCODING 164
SWIDTH 680 0
DWIDTH 9 0
BBX 8 8 1 1
BITMAP
81
7E
66
42
42
66
7E
81
ENDCHAR

STARTCHAR yen
ENCODING 165
SWIDTH 680 0
DWIDTH 9 0
BBX 10 9 1 0
BITMAP
7BC0
3100
3300
1E00
7F00
1800
FF00
1800
7C00
ENDCHAR

STARTCHAR brokenbar
ENCODING 166
SWIDTH 620 0
DWIDTH 8 0
BBX 2 12 4 -3
BITMAP
C0
C0
C0
C0
C0
80
C0
C0
C0
C0
C0
C0
ENDCHAR

STARTCHAR section
ENCODING 167
SWIDTH 620 0
DWIDTH 8 0
BBX 8 11 1 -2
BITMAP
1F
33
39
1E
6F
63
7E
1E
C6
E6
7C
ENDCHAR

STARTCHAR dieresis
ENCODING 168
SWIDTH 520 0
DWIDTH 7 0
BBX 5 2 2 8
BITMAP
D8
D8
ENDCHAR

STARTCHAR copyright
ENCODING 169
SWIDTH 780 0
DWIDTH 10 0
BBX 9 10 2 -1
BITMAP
1C00
2200
5F00
B280
A080
A080
B480
5D00
2200
1C00
ENDCHAR

STARTCHAR ordfeminine
ENCODING 170
SWIDTH 440 0
DWIDTH 6 0
BBX 6 4 1 5
BITMAP
78
D8
D8
6C
ENDCHAR

STARTCHAR guillemotleft
ENCODING 171
SWIDTH 380 0
DWIDTH 5 0
BBX 4 5 1 1
BITMAP
50
F0
A0
A0
A0
ENDCHAR

STARTCHAR logicalnot
ENCODING 172
SWIDTH 620 0
DWIDTH 8 0
BBX 6 3 2 3
BITMAP
FC
04
04
ENDCHAR

STARTCHAR hyphen
ENCODING 173
SWIDTH 280 0
DWIDTH 4 0
BBX 3 1 1 3
BITMAP
E0
ENDCHAR

STARTCHAR registered
ENCODING 174
SWIDTH 780 0
DWIDTH 10 0
BBX 10 10 1 -1
BITMAP
1E00
2100
5C80
9240
9E40
9440
9640
5B80
2300
1C00
ENDCHAR

STARTCHAR macron
ENCODING 175
SWIDTH 480 0
DWIDTH 6 0
BBX 5 1 2 8
BITMAP
F8
ENDCHAR

STARTCHAR degree
ENCODING 176
SWIDTH 400 0
DWIDTH 5 0
BBX 4 4 2 5
BITMAP
60
90
90
60
ENDCHAR

STARTCHAR plusminus
ENCODING 177
SWIDTH 600 0
DWIDTH 8 0
BBX 7 8 1 1
BITMAP
10
10
10
FE
10
10
00
FE
ENDCHAR

STARTCHAR twosuperior
ENCODING 178
SWIDTH 408 0
DWIDTH 5 0
BBX 5 5 1 4
BITMAP
38
48
10
28
F8
ENDCHAR

STARTCHAR threesuperior
ENCODING 179
SWIDTH 408 0
DWIDTH 5 0
BBX 4 5 2 4
BITMAP
70
90
20
90
E0
ENDCHAR

STARTCHAR acute
ENCODING 180
SWIDTH 340 0
DWIDTH 4 0
BBX 3 3 3 7
BITMAP
60
C0
80
ENDCHAR

STARTCHAR mu
ENCODING 181
SWIDTH 680 0
DWIDTH 9 0
BBX 8 9 1 -3
BITMAP
33
33
36
66
66
6F
B6
80
80
ENDCHAR

STARTCHAR paragraph
ENCODING 182
SWIDTH 680 0
DWIDTH 9 0
BBX 7 12 2 -3
BITMAP
7E
F4
F4
F4
F4
74
14
14
14
14
14
14
ENDCHAR

STARTCHAR periodcentered
ENCODING 183
SWIDTH 340 0
DWIDTH 4 0
BBX 2 2 2 3
BITMAP
C0
C0
ENDCHAR

STARTCHAR cedilla
ENCODING 184
SWIDTH 360 0
DWIDTH 5 0
BBX 3 3 0 -3
BITMAP
40
20
E0
ENDCHAR

STARTCHAR onesuperior
ENCODING 185
SWIDTH 408 0
DWIDTH 5 0
BBX 3 5 2 4
BITMAP
60
20
60
40
E0
ENDCHAR

STARTCHAR ordmasculine
ENCODING 186
SWIDTH 440 0
DWIDTH 6 0
BBX 5 4 2 5
BITMAP
70
D8
D8
70
ENDCHAR

STARTCHAR guillemotright
ENCODING 187
SWIDTH 380 0
DWIDTH 5 0
BBX 4 5 1 1
BITMAP
50
50
50
F0
A0
ENDCHAR

STARTCHAR onequarter
ENCODING 188
SWIDTH 1020 0
DWIDTH 13 0
BBX 12 9 2 0
BITMAP
6040
2080
6100
4200
E420
08E0
11B0
21E0
6040
ENDCHAR

STARTCHAR onehalf
ENCODING 189
SWIDTH 1020 0
DWIDTH 13 0
BBX 11 9 2 0
BITMAP
6040
2080
6100
4200
E5E0
0920
1040
20A0
43E0
ENDCHAR

STARTCHAR threequarters
ENCODING 190
SWIDTH 1020 0
DWIDTH 13 0
BBX 12 9 2 0
BITMAP
7040
9080
2100
9200
E420
08E0
11B0
31E0
6040
ENDCHAR

STARTCHAR questiondown
ENCODING 191
SWIDTH 620 0
DWIDTH 8 0
BBX 7 9 0 -3
BITMAP
06
06
00
3C
7C
E0
C2
E6
7E
ENDCHAR

STARTCHAR Agrave
ENCODING 192
SWIDTH 720 0
DWIDTH 9 0
BBX 10 12 0 0
BITMAP
0C00
0600
0000
0700
0F00
0B00
1B00
1180
3F80
2180
6180
F3C0
ENDCHAR

STARTCHAR Aacute
ENCODING 193
SWIDTH 720 0
DWIDTH 9 0
BBX 10 12 0 0
BITMAP
0180
0300
0000
0700
0F00
0B00
1B00
1180
3F80
2180
6180
F3C0
ENDCHAR

STARTCHAR Acircumflex
ENCODING 194
SWIDTH 720 0
DWIDTH 9 0
BBX 10 12 0 0
BITMAP
0700
0D80
0000
0700
0F00
0B00
1B00
1180
3F80
2180
6180
F3C0
ENDCHAR

STARTCHAR Atilde
ENCODING 195
SWIDTH 720 0
DWIDTH 9 0
BBX 10 12 0 0
BITMAP
0740
0B80
0000
0700
0F00
0B00
1B00
1180
3F80
2180
6180
F3C0
ENDCHAR

STARTCHAR Adieresis
ENCODING 196
SWIDTH 720 0
DWIDTH 9 0
BBX 10 12 0 0
BITMAP
0CC0
0CC0
0000
0700
0F00
0B00
1B00
1180
3F80
2180
6180
F3C0
ENDCHAR

STARTCHAR Aring
ENCODING 197
SWIDTH 720 0
DWIDTH 9 0
BBX 10 12 0 0
BITMAP
0700
0880
0880
0700
0F00
0B00
1B00
1180
3F80
2180
6180
F3C0
ENDCHAR

STARTCHAR AE
ENCODING 198
SWIDTH 1140 0
DWIDTH 15 0
BBX 16 9 0 0
BITMAP
0FFE
0663
0C61
08C8
1FF8
10D0
3182
6186
F3FC
ENDCHAR

STARTCHAR Ccedilla
ENCODING 199
SWIDTH 700 0
DWIDTH 9 0
BBX 8 12 2 -3
BITMAP
1E
73
E1
C0
C0
C0
C2
E6
7C
10
08
30
ENDCHAR

STARTCHAR Egrave
ENCODING 200
SWIDTH 720 0
DWIDTH 9 0
BBX 9 12 1 0
BITMAP
0C00
0600
0000
3F00
1980
1880
3200
3E00
3400
6080
6180
FF00
ENDCHAR

STARTCHAR Eacute
ENCODING 201
SWIDTH 720 0
DWIDTH 9 0
BBX 9 12 1 0
BITMAP
0600
0C00
0000
3F00
1980
1880
3200
3E00
3400
6080
6180
FF00
ENDCHAR

STARTCHAR Ecircumflex
ENCODING 202
SWIDTH 720 0
DWIDTH 9 0
BBX 9 12 1 0
BITMAP
0700
0D80
0000
3F00
1980
1880
3200
3E00
3400
6080
6180
FF00
ENDCHAR

STARTCHAR Edieresis
ENCODING 203
SWIDTH 720 0
DWIDTH 9 0
BBX 9 12 1 0
BITMAP
1B00
1B00
0000
3F00
1980
1880
3200
3E00
3400
6080
6180
FF00
ENDCHAR

STARTCHAR Igrave
ENCODING 204
SWIDTH 380 0
DWIDTH 5 0
BBX 6 12 1 0
BITMAP
30
18
00
3C
18
18
30
30
30
60
60
F0
ENDCHAR

STARTCHAR Iacute
ENCODING 205
SWIDTH 380 0
DWIDTH 5 0
BBX 6 12 1 0
BITMAP
0C
18
00
3C
18
18
30
30
30
60
60
F0
ENDCHAR

STARTCHAR Icircumflex
ENCODING 206
SWIDTH 380 0
DWIDTH 5 0
BBX 7 12 1 0
BITMAP
1C
36
00
3C
18
18
30
30
30
60
60
F0
ENDCHAR

STARTCHAR Idieresis
ENCODING 207
SWIDTH 380 0
DWIDTH 5 0
BBX 7 12 1 0
BITMAP
36
36
00
3C
18
18
30
30
30
60
60
F0
ENDCHAR

STARTCHAR Gbreve
ENCODING 208
SWIDTH 760 0
DWIDTH 10 0
BBX 9 12 2 0
BITMAP
0880
0700
0000
1F00
7180
6080
E000
C780
C300
C300
E700
7E00
ENDCHAR

STARTCHAR Ntilde
ENCODING 209
SWIDTH 740 0
DWIDTH 9 0
BBX 10 12 1 0
BITMAP
0680
0B00
0000
39C0
1880
1880
3D80
2D00
2700
6700
4600
E600
ENDCHAR

STARTCHAR Ograve
ENCODING 210
SWIDTH 760 0
DWIDTH 10 0
BBX 9 12 2 0
BITMAP
0C00
0600
0000
1F00
7380
6180
E180
C180
C380
C300
E700
7C00
ENDCHAR

STARTCHAR Oacute
ENCODING 211
SWIDTH 760 0
DWIDTH 10 0
BBX 9 12 2 0
BITMAP
0300
0600
0000
1F00
7380
6180
E180
C180
C380
C300
E700
7C00
ENDCHAR

STARTCHAR Ocircumflex
ENCODING 212
SWIDTH 760 0
DWIDTH 10 0
BBX 9 12 2 0
BITMAP
0700
0D80
0000
1F00
7380
6180
E180
C180
C380
C300
E700
7C00
ENDCHAR

STARTCHAR Otilde
ENCODING 213
SWIDTH 760 0
DWIDTH 10 0
BBX 9 12 2 0
BITMAP
0D00
1600
0000
1F00
7380
6180
E180
C180
C380
C300
E700
7C00
ENDCHAR

STARTCHAR Odieresis
ENCODING 214
SWIDTH 760 0
DWIDTH 10 0
BBX 9 12 2 0
BITMAP
3300
3300
0000
1F00
7380
6180
E180
C180
C380
C300
E700
7C00
ENDCHAR

STARTCHAR multiply
ENCODING 215
SWIDTH 600 0
DWIDTH 8 0
BBX 6 5 2 2
BITMAP
CC
78
30
78
CC
ENDCHAR

STARTCHAR Oslash
ENCODING 216
SWIDTH 760 0
DWIDTH 10 0
BBX 11 9 0 0
BITMAP
1FA0
39C0
31C0
72C0
64C0
69C0
7180
7380
9F00
ENDCHAR

STARTCHAR Ugrave
ENCODING 217
SWIDTH 740 0
DWIDTH 10 0
BBX 10 12 2 0
BITMAP
0C00
0600
0000
79C0
3080
3180
6100
6100
6300
C200
E600
7C00
ENDCHAR

STARTCHAR Uacute
ENCODING 218
SWIDTH 740 0
DWIDTH 10 0
BBX 10 12 2 0
BITMAP
0300
0600
0000
79C0
3080
3180
6100
6100
6300
C200
E600
7C00
ENDCHAR

STARTCHAR Ucircumflex
ENCODING 219
SWIDTH 740 0
DWIDTH 10 0
BBX 10 12 2 0
BITMAP
0700
0D80
0000
79C0
3080
3180
6100
6100
6300
C200
E600
7C00
ENDCHAR

STARTCHAR Udieresis
ENCODING 220
SWIDTH 740 0
DWIDTH 10 0
BBX 10 12 2 0
BITMAP
1980
1980
0000
79C0
3080
3180
6100
6100
6300
C200
E600
7C00
ENDCHAR

STARTCHAR Idotaccent
ENCODING 221
SWIDTH 380 0
DWIDTH 5 0
BBX 6 12 1 0
BITMAP
0C
0C
00
3C
18
18
30
30
30
60
60
F0
ENDCHAR

STARTCHAR Scedilla
ENCODING 222
SWIDTH 700 0
DWIDTH 9 0
BBX 9 12 1 -3
BITMAP
1E80
3180
6080
7800
3E00
0F00
8300
C600
BC00
1000
0800
3000
ENDCHAR

STARTCHAR germandbls
ENCODING 223
SWIDTH 660 0
DWIDTH 9 0
BBX 10 12 -1 -3
BITMAP
0780
0EC0
0DC0
1F00
0D00
1980
18C0
1EC0
1B80
3000
B000
E000
ENDCHAR

STARTCHAR agrave
ENCODING 224
SWIDTH 680 0
DWIDTH 9 0
BBX 8 9 2 0
BITMAP
30
18
00
3D
66
C6
CC
DD
76
ENDCHAR

STARTCHAR aacute
ENCODING 225
SWIDTH 680 0
DWIDTH 9 0
BBX 8 9 2 0
BITMAP
0C
18
00
3D
66
C6
CC
DD
76
ENDCHAR

STARTCHAR acircumflex
ENCODING 226
SWIDTH 680 0
DWIDTH 9 0
BBX 8 9 2 0
BITMAP
0E
1B
00
3D
66
C6
CC
DD
76
ENDCHAR

STARTCHAR atilde
ENCODING 227
SWIDTH 680 0
DWIDTH 9 0
BBX 8 9 2 0
BITMAP
1A
2C
00
3D
66
C6
CC
DD
76
ENDCHAR

STARTCHAR adieresis
ENCODING 228
SWIDTH 680 0
DWIDTH 9 0
BBX 8 9 2 0
BITMAP
33
33
00
3D
66
C6
CC
DD
76
ENDCHAR

STARTCHAR aring
ENCODING 229
SWIDTH 680 0
DWIDTH 9 0
BBX 8 10 2 0
BITMAP
18
24
24
18
3D
66
C6
CC
DD
76
ENDCHAR

STARTCHAR ae
ENCODING 230
SWIDTH 880 0
DWIDTH 11 0
BBX 11 6 2 0
BITMAP
3FC0
6760
1EC0
ED80
CE60
F7C0
ENDCHAR

STARTCHAR ccedilla
ENCODING 231
SWIDTH 560 0
DWIDTH 7 0
BBX 7 9 2 -3
BITMAP
3C
6E
C4
C0
C4
78
20
10
60
ENDCHAR

STARTCHAR egrave
ENCODING 232
SWIDTH 560 0
DWIDTH 7 0
BBX 7 9 2 0
BITMAP
30
18
00
3C
66
CC
F8
C4
78
ENDCHAR

STARTCHAR eacute
ENCODING 233
SWIDTH 560 0
DWIDTH 7 0
BBX 7 9 1 0
BITMAP
0C
18
00
3C
66
CC
F8
C4
78
ENDCHAR

STARTCHAR ecircumflex
ENCODING 234
SWIDTH 560 0
DWIDTH 7 0
BBX 7 9 1 0
BITMAP
1C
36
00
3C
66
CC
F8
C4
78
ENDCHAR

STARTCHAR edieresis
ENCODING 235
SWIDTH 560 0
DWIDTH 7 0
BBX 7 9 1 0
BITMAP
36
36
00
3C
66
CC
F8
C4
78
ENDCHAR

STARTCHAR igrave
ENCODING 236
SWIDTH 380 0
DWIDTH 5 0
BBX 4 9 2 0
BITMAP
60
30
00
20
E0
60
C0
D0
60
ENDCHAR

STARTCHAR iacute
ENCODING 237
SWIDTH 380 0
DWIDTH 5 0
BBX 4 9 2 0
BITMAP
30
60
00
20
E0
60
C0
D0
60
ENDCHAR

STARTCHAR icircumflex
ENCODING 238
SWIDTH 380 0
DWIDTH 5 0
BBX 5 9 2 0
BITMAP
70
D8
00
20
E0
60
C0
D0
60
ENDCHAR

STARTCHAR idieresis
ENCODING 239
SWIDTH 380 0
DWIDTH 5 0
BBX 5 9 2 0
BITMAP
D8
D8
00
20
E0
60
C0
D0
60
ENDCHAR

STARTCHAR gbreve
ENCODING 240
SWIDTH 620 0
DWIDTH 8 0
BBX 9 12 1 -3
BITMAP
1100
0E00
0000
1E80
3300
6300
6300
7600
3E00
4600
EC00
7800
ENDCHAR

STARTCHAR ntilde
ENCODING 241
SWIDTH 680 0
DWIDTH 9 0
BBX 8 9 2 0
BITMAP
1A
2C
00
6C
F6
66
66
CD
CE
ENDCHAR

STARTCHAR ograve
ENCODING 242
SWIDTH 600 0
DWIDTH 8 0
BBX 7 9 1 0
BITMAP
30
18
00
3C
66
C6
C6
CC
78
ENDCHAR

STARTCHAR oacute
ENCODING 243
SWIDTH 600 0
DWIDTH 8 0
BBX 7 9 1 0
BITMAP
0C
18
00
3C
66
C6
C6
CC
78
ENDCHAR

STARTCHAR ocircumflex
ENCODING 244
SWIDTH 600 0
DWIDTH 8 0
BBX 7 9 1 0
BITMAP
1C
36
00
3C
66
C6
C6
CC
78
ENDCHAR

STARTCHAR otilde
ENCODING 245
SWIDTH 600 0
DWIDTH 8 0
BBX 7 9 1 0
BITMAP
1A
2C
00
3C
66
C6
C6
CC
78
ENDCHAR

STARTCHAR odieresis
ENCODING 246
SWIDTH 600 0
DWIDTH 8 0
BBX 7 9 1 0
BITMAP
36
36
00
3C
66
C6
C6
CC
78
ENDCHAR

STARTCHAR divide
ENCODING 247
SWIDTH 600 0
DWIDTH 8 0
BBX 6 7 2 1
BITMAP
30
30
00
FC
00
30
30
ENDCHAR

STARTCHAR oslash
ENCODING 248
SWIDTH 600 0
DWIDTH 8 0
BBX 7 6 1 0
BITMAP
3E
6E
DE
F6
EC
F8
ENDCHAR

STARTCHAR ugrave
ENCODING 249
SWIDTH 680 0
DWIDTH 9 0
BBX 8 9 2 0
BITMAP
30
18
00
66
E6
66
CC
DD
6E
ENDCHAR

STARTCHAR uacute
ENCODING 250
SWIDTH 680 0
DWIDTH 9 0
BBX 8 9 2 0
BITMAP
0C
18
00
66
E6
66
CC
DD
6E
ENDCHAR

STARTCHAR ucircumflex
ENCODING 251
SWIDTH 680 0
DWIDTH 9 0
BBX 8 9 2 0
BITMAP
1C
36
00
66
E6
66
CC
DD
6E
ENDCHAR

STARTCHAR udieresis
ENCODING 252
SWIDTH 680 0
DWIDTH 9 0
BBX 8 9 2 0
BITMAP
33
33
00
66
E6
66
CC
DD
6E
ENDCHAR

STARTCHAR dotlessi
ENCODING 253
SWIDTH 380 0
DWIDTH 5 0
BBX 4 6 2 0
BITMAP
20
E0
60
C0
D0
60
ENDCHAR

STARTCHAR scedilla
ENCODING 254
SWIDTH 540 0
DWIDTH 7 0
BBX 6 9 1 -3
BITMAP
3C
64
78
3C
CC
78
20
10
60
ENDCHAR

STARTCHAR ydieresis
ENCODING 255
SWIDTH 600 0
DWIDTH 8 0
BBX 8 12 0 -3
BITMAP
1B
1B
00
33
73
33
66
6E
36
0C
CC
78
ENDCHAR
ENDFONT
